<?xml version="1.0" encoding="utf-8"?>
<!-- Generator: Adobe Illustrator 16.0.0, SVG Export Plug-In . SVG Version: 6.00 Build 0)  -->
<!DOCTYPE svg PUBLIC "-//W3C//DTD SVG 1.1//EN" "http://www.w3.org/Graphics/SVG/1.1/DTD/svg11.dtd">
<svg version="1.1" id="Layer_1" xmlns="http://www.w3.org/2000/svg" xmlns:xlink="http://www.w3.org/1999/xlink" x="0px" y="0px"
	 width="472.228px" height="196.999px" viewBox="0 0 472.228 196.999" enable-background="new 0 0 472.228 196.999"
	 xml:space="preserve">
<rect x="157.246" y="56.48" fill="#64B1BC" width="13.724" height="84.039"/>
<g>
	<defs>
		<rect id="SVGID_1_" width="472.228" height="196.999"/>
	</defs>
	<clipPath id="SVGID_2_">
		<use xlink:href="#SVGID_1_"  overflow="visible"/>
	</clipPath>
	<path clip-path="url(#SVGID_2_)" fill="#4296B4" d="M181.338,122.579V56.48h27.56c23.703,0,43.437,8.959,43.437,41.962
		c0,32.437-21.208,42.078-45.025,42.078h-8.032C189.37,140.52,181.338,132.487,181.338,122.579 M195.063,122.177
		c0,3.304,2.677,5.98,5.98,5.98h8.31c18.373,0,28.92-8.166,28.92-29.715c0-21.434-10.094-29.146-30.168-29.146h-13.042V122.177z"/>
	<path clip-path="url(#SVGID_2_)" fill="#276092" d="M258.502,122.579V56.48h56.479v12.816h-42.757v22.682h42.757v12.249h-42.757
		v17.95c0,3.303,2.677,5.98,5.979,5.98h36.777v12.361h-38.54C266.533,140.519,258.502,132.487,258.502,122.579"/>
	<path clip-path="url(#SVGID_2_)" fill="#1D4F90" d="M411.72,140.52h4.028l-70.126-81.064c-1.635-1.889-4.01-2.975-6.508-2.975
		h-0.04h-13.724v84.04h13.724v-16.445h44.75l5.282,6.106C394.787,136.746,403.039,140.52,411.72,140.52 M339.074,112.166V72.344
		l34.448,39.822H339.074z"/>
	<path clip-path="url(#SVGID_2_)" fill="#83C8BC" d="M133.153,124.655L83.121,66.819c-5.68-6.566-13.932-10.338-22.613-10.338
		h-4.028l70.126,81.063c1.634,1.889,4.009,2.975,6.507,2.975h0.04h13.724V56.481h-13.724V124.655z"/>
	<polygon clip-path="url(#SVGID_2_)" fill="#1D4F90" points="423.388,140.519 423.388,132.939 420.952,132.939 420.952,131.632 
		427.2,131.632 427.2,132.939 424.767,132.939 424.767,140.519 	"/>
	<polygon clip-path="url(#SVGID_2_)" fill="#1D4F90" points="428.213,140.519 428.213,131.632 430,131.632 432.135,138.24 
		434.293,131.632 436.067,131.632 436.067,140.519 434.736,140.519 434.736,133.839 432.603,140.519 431.595,140.519 
		429.447,133.839 429.447,140.519 	"/>
</g>
</svg>
